<?xml version="1.0" encoding="utf-8"?>
<!-- Generator: Adobe Illustrator 28.0.0, SVG Export Plug-In . SVG Version: 6.00 Build 0)  -->
<svg version="1.1" id="t-logo" xmlns="http://www.w3.org/2000/svg" xmlns:xlink="http://www.w3.org/1999/xlink" x="0px" y="0px"
	 viewBox="0 0 481.5 449" style="enable-background:new 0 0 481.5 449;" xml:space="preserve">
<style type="text/css">
	.st0{fill:url(#SVGID_1_);}
	.st1{fill:url(#SVGID_00000119090967163894254590000006085473786802327958_);}
	.st2{fill:url(#SVGID_00000013185891084745338020000013669770208523687084_);}
	.st3{fill:url(#SVGID_00000000220039746450773980000000675706338582164908_);}
	.st4{fill:url(#SVGID_00000103256782594909386720000002113172727362946435_);}
	.st5{fill:url(#SVGID_00000166661315750373514680000004139410598531964834_);}
	.st6{fill:url(#SVGID_00000119083284188496373900000014080478905116097210_);}
	.st7{fill:url(#SVGID_00000146499794321965150400000016468596896322262148_);}
	.st8{fill:url(#SVGID_00000078038850302139832270000017398866915555469707_);}
</style>
<g>
	<linearGradient id="SVGID_1_" gradientUnits="userSpaceOnUse" x1="-148.7337" y1="363.95" x2="332.3552" y2="363.95">
		<stop  offset="0" style="stop-color:#93C5FD"/>
		<stop  offset="1" style="stop-color:#4F46E5"/>
	</linearGradient>
	<path class="st0" d="M109.4,371.7c5.8,1.5,19.4,5.8,22.4,5.8c7.5,0,13.5-6.1,13.5-13.5c0-7.5-6.1-13.6-13.5-13.6
		c-2.9,0-16.6,4.3-22.4,5.8c-15.8,4.1-30.3,4.1-46.1,0c-5.7-1.5-18.4-5.8-21.4-5.8c-7.5,0-13.6,6.1-13.6,13.6s6.1,13.5,13.6,13.5
		c2.9,0,15.7-4.3,21.4-5.8C79.1,367.6,93.6,367.6,109.4,371.7z"/>
	
		<linearGradient id="SVGID_00000108297901125513359190000004704181331474180492_" gradientUnits="userSpaceOnUse" x1="-148.7337" y1="150.9504" x2="332.3552" y2="150.9504">
		<stop  offset="0" style="stop-color:#93C5FD"/>
		<stop  offset="1" style="stop-color:#4F46E5"/>
	</linearGradient>
	<path style="fill:url(#SVGID_00000108297901125513359190000004704181331474180492_);" d="M41.9,164.6c2.9,0,15.7-4.3,21.4-5.8
		c15.8-4.1,30.3-4.1,46.1,0c5.8,1.5,19.4,5.8,22.4,5.8c7.5,0,13.5-6.1,13.5-13.6s-6.1-13.6-13.5-13.6c-2.9,0-16.6,4.3-22.4,5.8
		c-15.8,4.1-30.3,4.1-46.1,0c-5.7-1.5-18.4-5.8-21.4-5.8c-7.5,0-13.6,6.1-13.6,13.6S34.4,164.6,41.9,164.6z"/>
	
		<linearGradient id="SVGID_00000122001171397455849660000014120302369904513686_" gradientUnits="userSpaceOnUse" x1="-103.185" y1="202.2004" x2="378.315" y2="202.2004">
		<stop  offset="0" style="stop-color:#93C5FD"/>
		<stop  offset="1" style="stop-color:#4F46E5"/>
	</linearGradient>
	<path style="fill:url(#SVGID_00000122001171397455849660000014120302369904513686_);" d="M74,202.3c0,7.5,6.1,13.5,13.6,13.5
		c2.9,0,15.7-4.3,21.5-5.8c15.8-4.1,30.3-4.1,46.1,0c5.7,1.5,19.4,5.8,22.3,5.8c7.5,0,13.6-6.1,13.6-13.5c0-7.5-6.1-13.6-13.6-13.6
		c-2.9,0-16.6,4.3-22.3,5.8c-15.8,4.1-30.3,4.1-46.1,0c-5.8-1.5-18.5-5.8-21.5-5.8C80.1,188.7,74,194.8,74,202.3z"/>
	
		<linearGradient id="SVGID_00000012439753981182586950000009081803827822056114_" gradientUnits="userSpaceOnUse" x1="-103.185" y1="308.4109" x2="378.315" y2="308.4109">
		<stop  offset="0" style="stop-color:#93C5FD"/>
		<stop  offset="1" style="stop-color:#4F46E5"/>
	</linearGradient>
	<path style="fill:url(#SVGID_00000012439753981182586950000009081803827822056114_);" d="M177.5,294.7c-2.9,0-16.6,4.3-22.3,5.8
		c-15.8,4.1-30.3,4.1-46.1,0c-5.8-1.5-18.5-5.8-21.5-5.8c-7.5,0-13.6,6.1-13.6,13.6c0,0.1,0,0.1,0,0.2c0,0.1,0,0.1,0,0.2
		c0,7.5,6.1,13.5,13.6,13.5c2.9,0,15.7-4.3,21.5-5.8c15.8-4.1,30.3-4.1,46.1,0c5.7,1.5,19.4,5.8,22.3,5.8c7.5,0,13.6-6.1,13.6-13.5
		c0-0.1,0-0.1,0-0.2c0-0.1,0-0.1,0-0.2C191.1,300.8,185,294.7,177.5,294.7z"/>
	
		<linearGradient id="SVGID_00000056390758155340525090000007847281172987099542_" gradientUnits="userSpaceOnUse" x1="-103.185" y1="415.25" x2="378.315" y2="415.25">
		<stop  offset="0" style="stop-color:#93C5FD"/>
		<stop  offset="1" style="stop-color:#4F46E5"/>
	</linearGradient>
	<path style="fill:url(#SVGID_00000056390758155340525090000007847281172987099542_);" d="M155.2,423c5.7,1.5,19.4,5.8,22.3,5.8
		c7.5,0,13.6-6.1,13.6-13.6s-6.1-13.5-13.6-13.5c-2.9,0-16.6,4.3-22.3,5.8c-15.8,4.2-30.3,4.2-46.1,0c-5.8-1.5-18.5-5.8-21.5-5.8
		c-7.5,0-13.6,6.1-13.6,13.5c0,7.5,6.1,13.6,13.6,13.6c2.9,0,15.7-4.3,21.5-5.8C124.9,418.9,139.4,418.9,155.2,423z"/>
	
		<linearGradient id="SVGID_00000167388820501399476640000013120906813833800065_" gradientUnits="userSpaceOnUse" x1="-148.7337" y1="257.1609" x2="332.3552" y2="257.1609">
		<stop  offset="0" style="stop-color:#93C5FD"/>
		<stop  offset="1" style="stop-color:#4F46E5"/>
	</linearGradient>
	<path style="fill:url(#SVGID_00000167388820501399476640000013120906813833800065_);" d="M41.9,270.9c2.9,0,15.7-4.3,21.4-5.8
		c15.8-4.1,30.3-4.1,46.1,0c5.8,1.5,19.4,5.8,22.4,5.8c7.5,0,13.5-6.1,13.5-13.6c0-0.1,0-0.1,0-0.2c0-0.1,0-0.1,0-0.2
		c0-7.5-6.1-13.5-13.5-13.5c-2.9,0-16.6,4.3-22.4,5.8c-15.8,4.1-30.3,4.1-46.1,0c-5.7-1.5-18.4-5.8-21.4-5.8
		c-7.5,0-13.6,6.1-13.6,13.5c0,0.1,0,0.1,0,0.2c0,0.1,0,0.1,0,0.2C28.3,264.8,34.4,270.9,41.9,270.9z"/>
	
		<linearGradient id="SVGID_00000007389268114823326990000003573304090116844728_" gradientUnits="userSpaceOnUse" x1="-148.6737" y1="47.3129" x2="332.4152" y2="47.3129">
		<stop  offset="0" style="stop-color:#93C5FD"/>
		<stop  offset="1" style="stop-color:#4F46E5"/>
	</linearGradient>
	<path style="fill:url(#SVGID_00000007389268114823326990000003573304090116844728_);" d="M42,60.9c2.9,0,15.7-4.3,21.4-5.8
		c15.8-4.1,30.3-4.1,46.1,0c5.8,1.5,19.4,5.8,22.4,5.8c7.5,0,13.5-6.1,13.5-13.6s-6.1-13.6-13.5-13.6c-2.9,0-16.6,4.3-22.4,5.8
		c-15.8,4.1-30.3,4.1-46.1,0C57.7,38,45,33.7,42,33.7c-7.5,0-13.6,6.1-13.6,13.6S34.5,60.9,42,60.9z"/>
	
		<linearGradient id="SVGID_00000068647392460395222080000010739661604573223862_" gradientUnits="userSpaceOnUse" x1="-103.125" y1="98.5629" x2="378.375" y2="98.5629">
		<stop  offset="0" style="stop-color:#93C5FD"/>
		<stop  offset="1" style="stop-color:#4F46E5"/>
	</linearGradient>
	<path style="fill:url(#SVGID_00000068647392460395222080000010739661604573223862_);" d="M74.1,98.6c0,7.5,6.1,13.5,13.6,13.5
		c2.9,0,15.7-4.3,21.5-5.8c15.8-4.1,30.3-4.1,46.1,0c5.7,1.5,19.4,5.8,22.3,5.8c7.5,0,13.6-6.1,13.6-13.5c0-7.5-6.1-13.6-13.6-13.6
		c-2.9,0-16.6,4.3-22.3,5.8c-15.8,4.1-30.3,4.1-46.1,0c-5.8-1.5-18.5-5.8-21.5-5.8C80.2,85,74.1,91.1,74.1,98.6z"/>
	
		<linearGradient id="SVGID_00000113329187062500885180000008757467242823404946_" gradientUnits="userSpaceOnUse" x1="-350.1035" y1="231.5021" x2="924.5767" y2="231.5021">
		<stop  offset="0" style="stop-color:#93C5FD"/>
		<stop  offset="1" style="stop-color:#4F46E5"/>
	</linearGradient>
	<path style="fill:url(#SVGID_00000113329187062500885180000008757467242823404946_);" d="M345.1,14h-11.6H123.9h-0.7
		c-0.1,0-1.2,0.1-1.3,0.1c-0.7,0.2-1.7,0.3-3,3.3V20c0,1.2,0.5,2.2,1.4,2.9c0.9,0.7,2,1,3.2,0.7c3-0.7,5.8-1.2,7.9-1.2
		c13.6,0,24.7,11.1,24.7,24.7c0,13.6-11.1,24.7-24.7,24.7c-2.1,0-4.9-0.5-7.9-1.2c-1.2-0.3-2.3,0-3.2,0.7c-0.9,0.7-1.4,1.8-1.4,2.9
		v4.1c0,1.9,1.4,3.5,3.3,3.7c9.9,1.3,19.5,0.6,29.7-2.1c6.6-1.7,18.9-6.2,25.2-6.2c13.6,0,24.7,11.1,24.7,24.7
		c0,13.6-11.1,24.7-24.7,24.7c-6.3,0-18.6-4.5-25.2-6.2c-10.3-2.7-19.8-3.4-29.7-2.1c-1.9,0.2-3.3,1.8-3.3,3.7v2.6c0,0,0,0,0,0v2.5
		c0,0,0,0,0,0v0.2c0,0,0,0,0,0c0,0,0,0,0,0c0.1,1.1,0.5,2,1.4,2.7c0.9,0.7,2,1,3.2,0.7c3-0.7,5.8-1.2,7.9-1.2
		c13.6,0,24.7,11.1,24.7,24.7c0,13.6-11.1,24.7-24.7,24.7c-2.1,0-4.9-0.5-7.9-1.2c-1.2-0.3-2.3,0-3.2,0.7c-0.9,0.7-1.4,1.8-1.4,2.9
		v4.1c0,1.9,1.4,3.5,3.3,3.7c9.9,1.3,19.5,0.6,29.7-2.1c6.6-1.7,18.9-6.2,25.2-6.2c13.6,0,24.7,11.1,24.7,24.7
		c0,13.6-11.1,24.7-24.7,24.7c-6.3,0-18.6-4.5-25.2-6.2c-10.3-2.7-19.8-3.4-29.7-2.1c-1.9,0.2-3.3,1.8-3.3,3.7v5.3c0,0,0,0,0,0v2.5
		c0,1.2,0.5,2.2,1.4,2.9c0.9,0.7,2,1,3.2,0.7c3-0.7,5.8-1.2,7.9-1.2c9.3,0,17.5,5.2,21.7,12.9c-0.1,0-0.1,0-0.2,0c0,0,0,0,0,0
		c0.4,0.5,0.7,1.1,1,1.6c1.4,3.1,2.2,6.6,2.2,10.2c0,13.6-11.1,24.7-24.7,24.7c-2.1,0-4.9-0.5-7.9-1.2c-1.2-0.3-2.3,0-3.2,0.7
		c-0.9,0.7-1.4,1.8-1.4,2.9v4.1c0,1.2,0.5,2.2,1.4,2.9c0.5,1.1,1.6,2,2.9,2.1c9.9,1.3,19.4,0.6,29.6-2.1c6.6-1.7,18.8-6.1,25.1-6.1
		c9,0,16.9,4.9,21.2,12.1c1.7,3.4,2.7,7.2,2.7,11.2c0,13.6-11.1,24.7-24.7,24.7c-6.3,0-18.6-4.5-25.2-6.2
		c-10.3-2.7-19.8-3.4-29.7-2.1c-1.9,0.2-3.3,1.8-3.3,3.7v5.3c0,0,0,0,0,0c0.3,0.2,0.7,0.4,1,0.5v3.5c0,1.2,0.5,2.2,1.4,2.9
		c0.9,0.7,2,1,3.2,0.7c3-0.7,5.8-1.2,7.9-1.2c13.5,0,24.6,11,24.6,24.5c0,13.5-11.1,24.5-24.6,24.5c-2.1,0-4.9-0.5-7.9-1.2
		c-1.2-0.3-2.3,0-3.2,0.7c-0.9,0.7-1.4,1.7-1.4,2.9v4.1c0,1.9,1.4,3.5,3.3,3.7c9.9,1.3,19.4,0.6,29.6-2.1c6.6-1.7,18.8-6.1,25.1-6.1
		c13.5,0,24.6,11,24.6,24.5c0,13.5-11.1,24.5-24.6,24.5c-6.3,0-18.5-4.5-25.1-6.1c-10.3-2.7-19.7-3.4-29.6-2.1
		c-1.9,0.2-3.3,1.8-3.3,3.7v9.8c0,2.1,1.7,3.7,3.7,3.7h106.6c2.1,0.1,3.7-1.6,3.7-3.7V266.4c0-5.2,4.2-9.4,9.4-9.4h93.8h6.7
		c47,0,85.1-38.1,85.1-85.1v-0.2V98.2v-0.2C429,51.6,391.4,14,345.1,14z M223,438h-17.4c5-6.1,8-13.9,8-22.4
		c0-19.6-16-35.5-35.7-35.5c-4.6,0-9.7,1.2-14.7,2.6c3.1-5.3,4.9-11.4,4.9-17.9c0-8.9-3.4-17.1-8.9-23.4c6.3,1.9,12.9,3.8,18.7,3.8
		c19.7,0,35.8-15.9,35.8-35.5c0-6.4-1.7-12.3-4.6-17.5c-6-11.5-18-19.4-31.8-19.4c-4,0-8.5,0.9-13,2.1c2.5-4.8,3.9-10.3,3.9-16.1
		c0-5.6-1.4-10.9-3.7-15.6c-1.4-3.2-3.2-6.2-5.4-8.8c6.1,1.8,12.5,3.6,18.2,3.6c19.8,0,35.8-16,35.8-35.8
		c0-19.8-16.1-35.8-35.8-35.8c-4.6,0-9.7,1.2-14.8,2.6c3.1-5.3,4.9-11.5,4.9-18.1c0-7.2-2.1-13.8-5.7-19.4
		c5.3,1.5,10.7,2.9,15.6,2.9c19.8,0,35.8-16,35.8-35.8c0-19.8-16.1-35.8-35.8-35.8c-4.6,0-9.7,1.2-14.8,2.6
		c3.1-5.3,4.9-11.5,4.9-18.1c0-9.1-1.9-16.7-5.9-22.3h57c2.5,0,4.6,2.1,4.6,4.6V118h0c0,0.1,0,0.3,0,0.4V438z M233.9,118L233.9,118
		l0.1-26.5c0-3.6,2.9-6.5,6.5-6.5H336c16.6,0,30,13.4,30,30v42c0,16.6-13.4,30-30,30h-95.6c-3.5,0-6.4-2.9-6.4-6.4v-62.2
		C234,118.3,234,118.1,233.9,118z M415,122.7V171c0,40.3-32.7,73-73,73h-5.9H243c-5,0-9-4-9-9v-32.1c0-4.4,3.5-7.9,7.9-7.9h99.1
		c17.6,0,31.9-14.3,31.9-31.9v-54.1c0-17.6-14.3-31.9-31.9-31.9H241c-3.9,0-7-3.1-7-7V31.9c0-3.8,3.1-6.9,6.9-6.9h96.7
		c42.9,0.2,77.7,35,77.4,77.9V122.7z"/>
</g>
</svg>
